<svg xmlns="http://www.w3.org/2000/svg" xmlns:xlink="http://www.w3.org/1999/xlink" width="682" height="130" viewBox="0 0 682 130">
  <defs>
    <clipPath id="clip-submit_button">
      <rect width="682" height="130"/>
    </clipPath>
  </defs>
  <g id="submit_button" clip-path="url(#clip-submit_button)">
    <g id="Rectangle_1" data-name="Rectangle 1" transform="translate(-70.116 100.903) rotate(-45)" fill="#fbbf24" stroke="#000" stroke-width="1">
      <rect width="229" height="33" stroke="none"/>
      <rect x="0.5" y="0.5" width="228" height="32" fill="none"/>
    </g>
    <g id="Path_1" data-name="Path 1" transform="translate(0)" fill="#fff">
      <path d="M 641.3812255859375 129.5 L 0.5 129.5 L 0.5 92.1861572265625 L 89.02476501464844 0.5 L 681.5 0.5 L 681.5 86.84458160400391 L 641.3812255859375 129.5 Z" stroke="none"/>
      <path d="M 89.237060546875 1 L 1 92.38814544677734 L 1 129 L 641.1651611328125 129 L 681 86.64649963378906 L 681 1 L 89.237060546875 1 M 88.8125 0 L 682 0 L 682 87.04283142089844 L 641.597412109375 130 L 0 130 L 0 91.98416137695312 L 88.8125 0 Z" stroke="none" fill="#000"/>
    </g>
    <text id="SUBMIT" transform="translate(197 90)" font-size="70" font-family="QuantumRegular, Quantum"><tspan x="0" y="0">SUBMIT</tspan></text>
    <g id="check-circle" transform="translate(502 40)">
      <path id="Path_10" data-name="Path 10" d="M25,46.875A21.875,21.875,0,1,1,46.875,25,21.875,21.875,0,0,1,25,46.875ZM25,50A25,25,0,1,0,0,25,25,25,0,0,0,25,50Z"/>
      <path id="Path_11" data-name="Path 11" d="M25.52,5.448a.735.735,0,0,0-.062.069L14.6,19.345,8.064,12.8a2.344,2.344,0,0,0-3.312,3.312l8.269,8.272a2.344,2.344,0,0,0,3.372-.063L28.867,8.729A2.344,2.344,0,1,0,25.52,5.448Z" transform="translate(8.761 10.083)"/>
    </g>
  </g>
</svg>
