<svg xmlns="http://www.w3.org/2000/svg" xmlns:xlink="http://www.w3.org/1999/xlink" width="682" height="130" viewBox="0 0 682 130">
  <defs>
    <clipPath id="clip-about_button">
      <rect width="682" height="130"/>
    </clipPath>
  </defs>
  <g id="about_button" clip-path="url(#clip-about_button)">
    <rect id="Rectangle_1" data-name="Rectangle 1" width="229" height="33" transform="translate(-70.116 100.903) rotate(-45)" fill="#fbbf24"/>
    <path id="Path_1" data-name="Path 1" d="M88.813,0H682V87.043L641.6,130H0V91.984Z" transform="translate(0)" fill="#fff"/>
    <text id="About" transform="translate(205 90)" font-size="70" font-family="QuantumRegular, Quantum"><tspan x="0" y="0">About</tspan></text>
    <g id="info-square" transform="translate(451 46)">
      <path id="Path_8" data-name="Path 8" d="M43.75,3.125A3.125,3.125,0,0,1,46.875,6.25v37.5a3.125,3.125,0,0,1-3.125,3.125H6.25A3.125,3.125,0,0,1,3.125,43.75V6.25A3.125,3.125,0,0,1,6.25,3.125ZM6.25,0A6.25,6.25,0,0,0,0,6.25v37.5A6.25,6.25,0,0,0,6.25,50h37.5A6.25,6.25,0,0,0,50,43.75V6.25A6.25,6.25,0,0,0,43.75,0Z"/>
      <path id="Path_9" data-name="Path 9" d="M14.094,13.15l-7.156.9-.256,1.188,1.406.259c.919.219,1.1.55.9,1.466L6.681,27.8c-.606,2.8.328,4.122,2.525,4.122a6.472,6.472,0,0,0,4.578-1.869l.275-1.3a3.462,3.462,0,0,1-2.144.769c-.859,0-1.172-.6-.95-1.666Zm.219-6.525A3.125,3.125,0,1,1,11.187,3.5,3.125,3.125,0,0,1,14.312,6.625Z" transform="translate(13.813 7.438)"/>
    </g>
  </g>
</svg>
