<svg xmlns="http://www.w3.org/2000/svg" xmlns:xlink="http://www.w3.org/1999/xlink" width="682" height="130" viewBox="0 0 682 130">
  <defs>
    <clipPath id="clip-discord_button">
      <rect width="682" height="130"/>
    </clipPath>
  </defs>
  <g id="discord_button" clip-path="url(#clip-discord_button)">
    <rect id="Rectangle_1" data-name="Rectangle 1" width="229" height="33" transform="translate(-70.116 100.903) rotate(-45)" fill="#fbbf24"/>
    <path id="Path_1" data-name="Path 1" d="M88.813,0H682V87.043L641.6,130H0V91.984Z" transform="translate(0)" fill="#fff"/>
    <text id="Discord" transform="translate(205 90)" font-size="70" font-family="QuantumRegular, Quantum"><tspan x="0" y="0">Discord</tspan></text>
    <g id="discord-2" data-name="discord" transform="translate(498 44)">
      <path id="Path_6" data-name="Path 6" d="M8.65,6.712A3.044,3.044,0,0,0,5.736,9.883,3.063,3.063,0,0,0,8.65,13.055a3.044,3.044,0,0,0,2.914-3.171A3.026,3.026,0,0,0,8.65,6.712Zm10.429,0a3.044,3.044,0,0,0-2.914,3.171,3.063,3.063,0,0,0,2.914,3.171,3.044,3.044,0,0,0,2.914-3.171A3.044,3.044,0,0,0,19.079,6.712Z" transform="translate(12.178 17.259)"/>
      <path id="Path_7" data-name="Path 7" d="M45.143,0H6.857A5.871,5.871,0,0,0,1,5.886V44.514A5.871,5.871,0,0,0,6.857,50.4h32.4l-1.514-5.286,3.657,3.4,3.457,3.2L51,57.143V5.886A5.871,5.871,0,0,0,45.143,0ZM34.114,37.314S33.086,36.086,32.229,35A9.016,9.016,0,0,0,37.4,31.6a16.35,16.35,0,0,1-3.286,1.686,18.805,18.805,0,0,1-4.143,1.229,20.014,20.014,0,0,1-7.4-.029,23.986,23.986,0,0,1-4.2-1.229,16.744,16.744,0,0,1-2.086-.971c-.086-.057-.171-.086-.257-.143a.394.394,0,0,1-.114-.086c-.514-.286-.8-.486-.8-.486a8.886,8.886,0,0,0,5,3.371c-.857,1.086-1.914,2.371-1.914,2.371-6.314-.2-8.714-4.343-8.714-4.343A38.262,38.262,0,0,1,13.6,16.314a14.129,14.129,0,0,1,8.029-3l.286.343A19.275,19.275,0,0,0,14.4,17.4s.629-.343,1.686-.829a21.456,21.456,0,0,1,6.486-1.8,2.815,2.815,0,0,1,.486-.057A23.289,23.289,0,0,1,37.429,17.4a19.015,19.015,0,0,0-7.114-3.629l.4-.457a14.129,14.129,0,0,1,8.029,3,38.262,38.262,0,0,1,4.114,16.657S40.429,37.114,34.114,37.314Z"/>
    </g>
  </g>
</svg>
