<svg xmlns="http://www.w3.org/2000/svg" xmlns:xlink="http://www.w3.org/1999/xlink" width="682" height="130" viewBox="0 0 682 130">
  <defs>
    <clipPath id="clip-join_button">
      <rect width="682" height="130"/>
    </clipPath>
  </defs>
  <g id="join_button" clip-path="url(#clip-join_button)">
    <rect id="Rectangle_1" data-name="Rectangle 1" width="229" height="33" transform="translate(-70.116 100.903) rotate(-45)" fill="#fbbf24"/>
    <path id="Path_1" data-name="Path 1" d="M88.813,0H682V87.043L641.6,130H0V91.984Z" transform="translate(0)" fill="#fff"/>
    <text id="Launch" transform="translate(223 83)" font-size="70" font-family="QuantumRegular, Quantum"><tspan x="0" y="0">Launch</tspan></text>
    <path id="cpu" d="M15.625,0a1.562,1.562,0,0,1,1.563,1.563V6.25h3.125V1.563a1.563,1.563,0,0,1,3.125,0V6.25h3.125V1.563a1.563,1.563,0,0,1,3.125,0V6.25h3.125V1.563a1.563,1.563,0,0,1,3.125,0V6.25a7.813,7.813,0,0,1,7.813,7.813h4.688a1.563,1.563,0,0,1,0,3.125H43.75v3.125h4.688a1.563,1.563,0,0,1,0,3.125H43.75v3.125h4.688a1.563,1.563,0,0,1,0,3.125H43.75v3.125h4.688a1.563,1.563,0,0,1,0,3.125H43.75a7.813,7.813,0,0,1-7.812,7.813v4.688a1.563,1.563,0,0,1-3.125,0V43.75H29.688v4.688a1.563,1.563,0,0,1-3.125,0V43.75H23.438v4.688a1.563,1.563,0,0,1-3.125,0V43.75H17.188v4.688a1.563,1.563,0,0,1-3.125,0V43.75A7.813,7.813,0,0,1,6.25,35.938H1.563a1.563,1.563,0,0,1,0-3.125H6.25V29.688H1.563a1.563,1.563,0,0,1,0-3.125H6.25V23.438H1.563a1.563,1.563,0,0,1,0-3.125H6.25V17.188H1.563a1.563,1.563,0,0,1,0-3.125H6.25A7.813,7.813,0,0,1,14.063,6.25V1.563A1.563,1.563,0,0,1,15.625,0ZM14.063,9.375a4.687,4.687,0,0,0-4.687,4.688V35.938a4.687,4.687,0,0,0,4.688,4.688H35.938a4.687,4.687,0,0,0,4.688-4.687V14.063a4.687,4.687,0,0,0-4.687-4.687Zm1.563,10.938a4.688,4.688,0,0,1,4.688-4.687h9.375a4.687,4.687,0,0,1,4.688,4.688v9.375a4.687,4.687,0,0,1-4.687,4.688H20.313a4.687,4.687,0,0,1-4.687-4.687Zm4.688-1.562a1.563,1.563,0,0,0-1.562,1.563v9.375a1.563,1.563,0,0,0,1.563,1.563h9.375a1.563,1.563,0,0,0,1.563-1.562V20.313a1.563,1.563,0,0,0-1.562-1.562Z" transform="translate(493 40)"/>
  </g>
</svg>
