<svg xmlns="http://www.w3.org/2000/svg" xmlns:xlink="http://www.w3.org/1999/xlink" width="682" height="130" viewBox="0 0 682 130">
  <defs>
    <clipPath id="clip-members_button">
      <rect width="682" height="130"/>
    </clipPath>
  </defs>
  <g id="members_button" clip-path="url(#clip-members_button)">
    <rect id="Rectangle_1" data-name="Rectangle 1" width="229" height="33" transform="translate(-70.116 100.903) rotate(-45)" fill="#fbbf24"/>
    <path id="Path_1" data-name="Path 1" d="M88.813,0H682V87.043L641.6,130H0V91.984Z" transform="translate(0)" fill="#fff"/>
    <text id="Members" transform="translate(200 90)" font-size="70" font-family="QuantumRegular, Quantum"><tspan x="0" y="0">Members</tspan></text>
    <path id="people" d="M46.875,39.5A3.061,3.061,0,0,0,50,36.375c0-3.125-3.125-12.5-15.625-12.5S18.75,33.25,18.75,36.375A3.061,3.061,0,0,0,21.875,39.5ZM21.944,36.375q-.035,0-.069-.013a9.59,9.59,0,0,1,2.375-5.375C25.975,28.966,29.006,27,34.375,27s8.4,1.969,10.125,3.987a9.622,9.622,0,0,1,2.375,5.375l-.025.006-.044.006Zm12.431-18.75a6.25,6.25,0,1,0-6.25-6.25A6.25,6.25,0,0,0,34.375,17.625Zm9.375-6.25A9.375,9.375,0,1,1,34.375,2a9.375,9.375,0,0,1,9.375,9.375ZM21.675,24.75a18.375,18.375,0,0,0-3.844-.772q-1.1-.1-2.206-.1C3.125,23.875,0,33.25,0,36.375Q0,39.5,3.125,39.5H16.3a6.994,6.994,0,0,1-.675-3.125A14.341,14.341,0,0,1,19.031,27.3a16.536,16.536,0,0,1,2.644-2.55ZM15.375,27A17.166,17.166,0,0,0,12.5,36.375H3.125A9.589,9.589,0,0,1,5.5,30.987C7.2,29,10.162,27.063,15.375,27ZM4.688,12.938a9.375,9.375,0,1,1,9.375,9.375A9.375,9.375,0,0,1,4.688,12.938Zm9.375-6.25a6.25,6.25,0,1,0,6.25,6.25A6.25,6.25,0,0,0,14.063,6.688Z" transform="translate(508 51.5)"/>
  </g>
</svg>
