<svg xmlns="http://www.w3.org/2000/svg" xmlns:xlink="http://www.w3.org/1999/xlink" width="682" height="130" viewBox="0 0 682 130">
  <defs>
    <clipPath id="clip-ss_button">
      <rect width="682" height="130"/>
    </clipPath>
  </defs>
  <g id="ss_button" clip-path="url(#clip-ss_button)">
    <g id="Rectangle_1" data-name="Rectangle 1" transform="translate(-70.116 100.903) rotate(-45)" fill="#fbbf24" stroke="#fff" stroke-width="1">
      <rect width="229" height="33" stroke="none"/>
      <rect x="0.5" y="0.5" width="228" height="32" fill="none"/>
    </g>
    <path id="Path_1" data-name="Path 1" d="M88.813,0H682V87.043L641.6,130H0V91.984Z" transform="translate(0)" fill="#fff"/>
    <text id="Screenshots" transform="translate(122 83)" font-size="70" font-family="QuantumRegular, Quantum"><tspan x="0" y="0">Screenshots</tspan></text>
    <path id="fullscreen" d="M4.688,3.125A1.563,1.563,0,0,0,3.125,4.688v12.5a1.563,1.563,0,1,1-3.125,0V4.688A4.688,4.688,0,0,1,4.688,0h12.5a1.563,1.563,0,0,1,0,3.125ZM31.25,1.563A1.563,1.563,0,0,1,32.813,0h12.5A4.687,4.687,0,0,1,50,4.688v12.5a1.563,1.563,0,0,1-3.125,0V4.688a1.562,1.562,0,0,0-1.562-1.562h-12.5A1.563,1.563,0,0,1,31.25,1.562ZM1.563,31.25a1.563,1.563,0,0,1,1.563,1.563v12.5a1.562,1.562,0,0,0,1.563,1.563h12.5a1.563,1.563,0,0,1,0,3.125H4.688A4.687,4.687,0,0,1,0,45.313v-12.5A1.563,1.563,0,0,1,1.563,31.25Zm46.875,0A1.563,1.563,0,0,1,50,32.813v12.5A4.687,4.687,0,0,1,45.313,50h-12.5a1.563,1.563,0,0,1,0-3.125h12.5a1.562,1.562,0,0,0,1.563-1.562v-12.5A1.563,1.563,0,0,1,48.438,31.25Z" transform="translate(578 40)"/>
  </g>
</svg>
