<svg xmlns="http://www.w3.org/2000/svg" xmlns:xlink="http://www.w3.org/1999/xlink" width="682" height="130" viewBox="0 0 682 130">
  <defs>
    <clipPath id="clip-top_button">
      <rect width="682" height="130"/>
    </clipPath>
  </defs>
  <g id="top_button" clip-path="url(#clip-top_button)">
    <rect id="Rectangle_1" data-name="Rectangle 1" width="229" height="33" transform="translate(-70.116 100.903) rotate(-45)" fill="#fbbf24"/>
    <path id="Path_1" data-name="Path 1" d="M88.813,0H682V87.043L641.6,130H0V91.984Z" transform="translate(0)" fill="#fff"/>
    <text id="Top_players" data-name="Top players" transform="translate(127 90)" font-size="70" font-family="QuantumRegular, Quantum"><tspan x="0" y="0">Top players</tspan></text>
    <g id="list-stars" transform="translate(584 49.996)">
      <path id="Path_4" data-name="Path 4" d="M5,33.357a1.786,1.786,0,0,1,1.786-1.786H38.928a1.786,1.786,0,1,1,0,3.571H6.786A1.786,1.786,0,0,1,5,33.357ZM5,19.071a1.786,1.786,0,0,1,1.786-1.786H38.928a1.786,1.786,0,0,1,0,3.571H6.786A1.786,1.786,0,0,1,5,19.071ZM5,4.786A1.786,1.786,0,0,1,6.786,3H38.928a1.786,1.786,0,0,1,0,3.571H6.786A1.786,1.786,0,0,1,5,4.786Z" transform="translate(10.286 2.562)" fill-rule="evenodd"/>
      <path id="Path_5" data-name="Path 5" d="M5.436,2.684a.964.964,0,0,1,1.843,0l.579,1.893a.97.97,0,0,0,.921.693h1.968a.983.983,0,0,1,.586,1.761l-1.671,1.3A.989.989,0,0,0,9.325,9.4l.618,2.032A.971.971,0,0,1,8.432,12.5L6.943,11.344a.954.954,0,0,0-1.171,0L4.282,12.5A.969.969,0,0,1,2.772,11.43L3.39,9.394a.989.989,0,0,0-.336-1.068L1.382,7.03a.983.983,0,0,1,.586-1.761H3.932a.968.968,0,0,0,.925-.693l.579-1.893Zm0,14.286a.964.964,0,0,1,1.843,0l.579,1.893a.97.97,0,0,0,.921.693h1.968a.983.983,0,0,1,.586,1.761l-1.671,1.3a.989.989,0,0,0-.336,1.071l.618,2.032a.971.971,0,0,1-1.511,1.071L6.943,25.63a.954.954,0,0,0-1.171,0L4.282,26.783a.969.969,0,0,1-1.511-1.068L3.39,23.68a.989.989,0,0,0-.336-1.068l-1.671-1.3a.983.983,0,0,1,.586-1.761H3.932a.968.968,0,0,0,.925-.693l.579-1.893Zm0,14.286a.964.964,0,0,1,1.843,0l.579,1.893a.97.97,0,0,0,.921.693h1.968a.983.983,0,0,1,.586,1.761L9.661,36.9a.989.989,0,0,0-.336,1.071L9.943,40a.971.971,0,0,1-1.511,1.071L6.943,39.915a.954.954,0,0,0-1.171,0L4.282,41.069A.969.969,0,0,1,2.772,40l.618-2.036A.989.989,0,0,0,3.054,36.9L1.382,35.6a.983.983,0,0,1,.586-1.761H3.932a.968.968,0,0,0,.925-.693l.579-1.893Z" transform="translate(0)"/>
    </g>
  </g>
</svg>
